<?xml version="1.0" standalone="no"?>
<!DOCTYPE svg PUBLIC "-//W3C//DTD SVG 20010904//EN"
 "http://www.w3.org/TR/2001/REC-SVG-20010904/DTD/svg10.dtd">
<svg version="1.0" xmlns="http://www.w3.org/2000/svg"
 width="300.000000pt" height="225.000000pt" viewBox="0 0 300.000000 225.000000"
 preserveAspectRatio="xMidYMid meet">
<metadata>
Created by potrace 1.10, written by Peter Selinger 2001-2011
</metadata>
<g transform="translate(0.000000,225.000000) scale(0.100000,-0.100000)"
fill="#000000" stroke="none">
<path d="M700 1489 c-114 -23 -212 -101 -264 -209 -28 -58 -31 -75 -31 -155 0
-77 4 -98 27 -147 35 -76 107 -151 176 -185 45 -22 73 -28 146 -31 119 -5 183
18 265 94 167 154 158 420 -20 561 -77 61 -204 92 -299 72z m146 -32 c215 -45
330 -288 230 -486 -71 -139 -227 -212 -380 -177 -154 36 -253 151 -264 306
-12 168 93 317 251 356 68 16 89 16 163 1z"/>
<path d="M694 1246 c-37 -37 -46 -84 -19 -106 20 -17 19 -33 -5 -55 -29 -26
-25 -49 15 -84 30 -26 44 -31 85 -31 62 0 95 13 116 45 24 37 22 80 -6 110
-22 23 -22 25 -6 51 36 54 -12 104 -99 104 -40 0 -52 -5 -81 -34z m157 -12
c11 -9 19 -23 19 -30 0 -22 -21 -27 -41 -8 -22 19 -74 23 -91 6 -19 -19 -1
-38 46 -52 56 -15 96 -51 96 -84 0 -35 -52 -76 -98 -76 -51 0 -102 33 -102 65
0 32 16 32 46 0 33 -36 104 -33 104 5 0 22 -13 32 -73 54 -60 22 -85 56 -68
92 23 51 119 67 162 28z"/>
<path d="M2182 1348 c-16 -16 -17 -347 0 -383 20 -44 100 -49 106 -6 3 20 0
23 -17 18 -39 -10 -44 13 -39 193 5 166 1 190 -27 190 -6 0 -16 -5 -23 -12z"/>
<path d="M1341 1317 c-46 -18 -71 -52 -71 -96 0 -50 36 -83 119 -110 74 -24
101 -45 101 -77 0 -30 -33 -47 -89 -47 -39 0 -48 4 -75 36 -35 42 -61 47 -71
16 -15 -47 67 -109 143 -109 46 0 105 21 134 47 26 23 33 75 15 110 -17 33
-52 53 -147 86 -50 17 -66 27 -68 44 -8 52 94 72 146 28 35 -29 62 -24 62 10
0 55 -119 92 -199 62z"/>
<path d="M1660 1252 c0 -47 -2 -50 -30 -55 -39 -8 -44 -47 -6 -47 23 0 24 -3
28 -91 3 -81 6 -93 27 -110 29 -24 93 -25 116 -3 25 25 13 39 -32 36 -48 -4
-52 3 -60 100 l-6 67 49 3 c42 3 49 6 52 26 3 20 -1 22 -41 22 l-45 0 1 48 c2
44 0 47 -25 50 -27 3 -28 2 -28 -46z m45 -62 c8 -13 -13 -40 -31 -40 -17 0
-18 37 -1 43 19 8 25 8 32 -3z"/>
<path d="M1851 1186 c-10 -12 0 -40 48 -141 60 -123 61 -126 47 -160 -15 -36
-33 -44 -54 -23 -9 9 -16 9 -28 -4 -15 -15 -14 -18 5 -37 28 -28 82 -28 107 0
20 23 125 308 127 349 2 18 -4 26 -19 28 -29 4 -40 -12 -67 -106 -13 -46 -27
-83 -32 -83 -5 0 -23 36 -40 80 -44 110 -65 132 -94 97z m154 -225 c-8 -39
-20 -39 -34 0 -9 26 -8 30 4 25 8 -3 17 -1 21 5 11 18 16 1 9 -30z"/>
<path d="M2400 1187 c-37 -18 -72 -93 -65 -137 15 -80 59 -120 132 -120 79 0
133 62 133 151 0 35 -6 48 -39 80 -34 35 -44 39 -87 39 -27 0 -60 -6 -74 -13z
m106 -45 c37 -24 44 -96 13 -136 -24 -31 -72 -35 -101 -9 -23 21 -25 99 -2
131 15 22 66 30 90 14z"/>
</g>
</svg>
